<svg xmlns="http://www.w3.org/2000/svg" viewBox="0 0 1600 900" role="img" aria-label="水墨楼阁远景背景">
<defs><linearGradient id="sky" x1="0" y1="0" x2="0" y2="1"><stop stop-color="#cbd5d0"/><stop offset=".58" stop-color="#e8e7da"/><stop offset="1" stop-color="#b9c6ba"/></linearGradient><linearGradient id="mist" x1="0" y1="0" x2="1" y2="0"><stop stop-color="#f4efe5" stop-opacity=".9"/><stop offset=".5" stop-color="#d9dfd4" stop-opacity=".2"/><stop offset="1" stop-color="#f4efe5" stop-opacity=".82"/></linearGradient><filter id="soft"><feGaussianBlur stdDeviation="7"/></filter></defs>
<rect width="1600" height="900" fill="url(#sky)"/>
<g opacity=".24" filter="url(#soft)" fill="#40574f"><path d="M0 445L180 370l180 75v22H0zM310 430l170-92 190 92v25H310zM850 420l210-112 235 112v26H850zM1240 450l160-86 200 86v22h-360z"/><path d="M45 455h270v180H45zM395 450h280v205H395zM900 440h330v220H900zM1270 465h285v190h-285z" fill="#607166"/></g>
<g opacity=".36" fill="#334b43" stroke="#263e37" stroke-width="5"><path d="M80 530l190-95 210 95H80z"/><path d="M135 520h295v180H135z" fill="#718078"/><path d="M520 505l230-115 250 115H520z"/><path d="M590 500h320v205H590z" fill="#66776d"/><path d="M1110 535l205-100 225 100h-430z"/><path d="M1170 525h300v180h-300z" fill="#748178"/></g>
<g opacity=".23" fill="#984c3e"><rect x="175" y="586" width="18" height="80"/><rect x="235" y="586" width="18" height="80"/><rect x="665" y="574" width="20" height="100"/><rect x="735" y="574" width="20" height="100"/><rect x="1260" y="590" width="18" height="85"/><rect x="1330" y="590" width="18" height="85"/></g>
<path d="M0 710C270 640 430 760 710 690s530-15 890-92v302H0z" fill="url(#mist)" opacity=".88"/><g opacity=".16" stroke="#30473e" stroke-width="3" fill="none"><path d="M40 780c250-120 420 45 660-40s480-30 850-100"/><path d="M0 825c260-100 450 30 690-38s510-15 910-85"/></g>
</svg>
